<?xml version="1.0" standalone="no"?>
<!DOCTYPE svg PUBLIC "-//W3C//DTD SVG 20010904//EN"
 "http://www.w3.org/TR/2001/REC-SVG-20010904/DTD/svg10.dtd">
<svg version="1.0" xmlns="http://www.w3.org/2000/svg"
 width="128.000000pt" height="128.000000pt" viewBox="0 0 128.000000 128.000000"
 preserveAspectRatio="xMidYMid meet">

<g transform="translate(0.000000,128.000000) scale(0.100000,-0.100000)"
fill="#000000" stroke="none">
<path d="M190 1091 c-5 -11 -10 -29 -10 -40 0 -18 -6 -21 -39 -21 -23 0 -48
-8 -62 -19 l-24 -19 -3 -339 c-2 -186 0 -348 3 -361 3 -12 14 -31 25 -42 19
-19 34 -20 233 -20 l213 0 22 -29 c12 -16 47 -42 78 -57 110 -54 246 -29 319
58 76 89 92 217 42 320 -16 32 -41 68 -58 82 -16 14 -29 27 -29 30 0 3 66 7
148 8 l147 3 3 86 c3 85 3 86 42 124 22 22 40 47 40 57 0 25 -32 23 -56 -3
-19 -21 -19 -21 -24 47 l-5 69 -157 3 -158 3 0 -197 c0 -173 -2 -195 -15 -184
-12 10 -15 43 -15 176 0 151 -2 166 -20 184 -13 13 -33 20 -60 20 -35 0 -40 3
-40 23 0 37 -22 59 -55 55 -27 -3 -30 -7 -33 -40 l-3 -38 -70 0 c-69 0 -69 0
-69 28 0 35 -16 52 -51 52 -28 0 -39 -15 -39 -56 0 -23 -3 -24 -70 -24 -70 0
-70 0 -70 28 0 15 -5 33 -12 40 -18 18 -56 14 -68 -7z m50 -66 c0 -42 -3 -55
-15 -55 -12 0 -15 13 -15 55 0 42 3 55 15 55 12 0 15 -13 15 -55z m230 0 c0
-42 -3 -55 -15 -55 -12 0 -15 13 -15 55 0 42 3 55 15 55 12 0 15 -13 15 -55z
m225 -1 c0 -37 -4 -49 -15 -49 -16 0 -27 63 -16 92 12 31 31 6 31 -43z m248
-11 l-33 -4 0 -170 0 -169 53 2 52 2 -47 3 -48 4 0 155 c0 149 1 154 21 154
11 0 27 -7 35 -15 10 -9 34 -15 63 -15 31 0 53 5 61 15 7 8 21 15 31 15 17 0
19 -8 19 -72 -1 -44 -6 -83 -15 -98 -19 -33 -19 -54 0 -46 12 4 15 -4 15 -44
l0 -49 -47 -4 c-47 -3 -47 -3 10 -5 l57 -2 0 59 c0 33 5 63 10 66 7 5 10 -17
8 -67 l-3 -73 -147 -3 -148 -3 0 186 0 185 43 -2 c36 -1 38 -2 10 -5z m147
-13 c0 -18 -7 -20 -55 -20 -48 0 -55 2 -55 20 0 18 7 20 55 20 48 0 55 -2 55
-20z m98 -49 c2 -36 -2 -69 -7 -74 -8 -8 -11 10 -11 60 l0 72 -32 4 c-27 4
-25 4 7 3 l40 -1 3 -64z m-1008 30 c0 -26 35 -50 62 -43 11 2 25 18 30 33 10
28 13 29 74 29 62 0 64 -1 64 -25 0 -52 80 -48 88 4 3 19 10 21 67 21 59 0 63
-2 69 -25 9 -36 41 -50 72 -30 13 8 24 24 24 35 0 16 7 20 34 20 44 0 66 -22
66 -66 l0 -34 -375 0 -375 0 0 31 c0 51 16 69 60 69 33 0 40 -3 40 -19z m1090
-71 c0 -5 -2 -10 -4 -10 -3 0 -8 5 -11 10 -3 6 -1 10 4 10 6 0 11 -4 11 -10z
m-26 -18 c6 -10 -51 -72 -65 -72 -16 0 -10 15 19 48 28 33 37 38 46 24z m-414
-119 l0 -98 -82 0 c-66 0 -91 -5 -123 -22 -119 -64 -182 -217 -142 -345 l15
-48 -193 0 c-163 0 -196 3 -209 16 -14 13 -16 55 -16 305 l0 289 375 0 375 0
0 -97z m19 -147 c50 -26 104 -89 124 -142 43 -121 -2 -247 -111 -311 -39 -24
-58 -28 -118 -28 -65 0 -75 3 -126 37 -104 69 -143 206 -91 320 27 58 62 93
128 125 58 28 138 27 194 -1z"/>
<path d="M950 910 c0 -27 3 -30 30 -30 27 0 30 3 30 30 0 27 -3 30 -30 30 -27
0 -30 -3 -30 -30z m50 0 c0 -13 -7 -20 -20 -20 -13 0 -20 7 -20 20 0 13 7 20
20 20 13 0 20 -7 20 -20z"/>
<path d="M1085 919 c-4 -6 -13 -8 -21 -5 -8 3 -14 -1 -14 -9 0 -22 33 -18 48
5 7 11 8 20 3 20 -6 0 -13 -5 -16 -11z"/>
<path d="M950 820 c0 -27 3 -30 30 -30 27 0 30 3 30 30 0 27 -3 30 -30 30 -27
0 -30 -3 -30 -30z m50 5 c0 -8 -9 -15 -20 -15 -11 0 -20 7 -20 15 0 8 9 15 20
15 11 0 20 -7 20 -15z"/>
<path d="M1090 835 c-7 -9 -19 -14 -27 -11 -16 6 -18 -10 -2 -20 12 -7 57 32
47 41 -3 3 -11 -2 -18 -10z"/>
<path d="M950 735 c0 -32 2 -35 30 -35 28 0 30 3 30 35 0 32 -2 35 -30 35 -28
0 -30 -3 -30 -35z m50 0 c0 -8 -9 -15 -20 -15 -11 0 -20 7 -20 15 0 8 9 15 20
15 11 0 20 -7 20 -15z"/>
<path d="M1059 747 c7 -7 7 -14 0 -23 -7 -9 -4 -12 14 -10 35 2 34 40 0 43
-18 1 -22 -2 -14 -10z"/>
<path d="M312 733 l3 -68 60 0 60 0 0 65 0 65 -63 3 -63 3 3 -68z m98 -3 c0
-39 -1 -40 -35 -40 -34 0 -35 1 -35 40 0 39 1 40 35 40 34 0 35 -1 35 -40z"/>
<path d="M472 733 l3 -68 60 0 60 0 0 65 0 65 -63 3 -63 3 3 -68z m98 2 c0
-33 -2 -35 -35 -35 -33 0 -35 2 -35 35 0 33 2 35 35 35 33 0 35 -2 35 -35z"/>
<path d="M634 786 c-9 -23 0 -79 14 -84 8 -2 12 8 12 32 0 34 2 36 35 36 31 0
35 -3 35 -25 0 -16 6 -25 15 -25 11 0 15 11 15 40 l0 40 -60 0 c-43 0 -62 -4
-66 -14z"/>
<path d="M152 563 l3 -68 51 -3 c64 -4 76 9 72 80 l-3 53 -63 3 -63 3 3 -68z
m88 2 c0 -32 -2 -35 -30 -35 -28 0 -30 3 -30 35 0 32 2 35 30 35 28 0 30 -3
30 -35z"/>
<path d="M312 563 l3 -68 39 -3 c22 -2 50 -1 63 3 22 5 24 9 21 68 l-3 62 -63
3 -63 3 3 -68z m98 2 c0 -33 -2 -35 -35 -35 -33 0 -35 2 -35 35 0 33 2 35 35
35 33 0 35 -2 35 -35z"/>
<path d="M150 395 l0 -66 63 3 62 3 0 60 0 60 -62 3 -63 3 0 -66z m90 0 c0
-32 -2 -35 -30 -35 -28 0 -30 3 -30 35 0 32 2 35 30 35 28 0 30 -3 30 -35z"/>
<path d="M310 395 l0 -66 63 3 62 3 0 60 0 60 -62 3 -63 3 0 -66z m100 0 c0
-33 -2 -35 -35 -35 -33 0 -35 2 -35 35 0 33 2 35 35 35 33 0 35 -2 35 -35z"/>
<path d="M670 599 c-152 -61 -177 -288 -42 -383 56 -40 139 -47 205 -18 81 36
136 139 122 229 -9 61 -61 133 -115 161 -47 24 -125 29 -170 11z m62 -41 c5
-32 28 -35 28 -3 0 25 3 27 28 20 58 -14 116 -74 128 -133 6 -28 4 -32 -15
-32 -12 0 -21 -6 -21 -15 0 -8 9 -15 20 -15 58 0 -18 -131 -93 -159 -41 -16
-47 -14 -47 15 0 31 -23 28 -28 -4 -4 -25 -9 -26 -49 -11 -38 14 -71 46 -94
91 -24 48 -24 66 1 70 12 2 21 8 21 13 0 6 -9 11 -21 13 -25 4 -25 22 -1 70
23 45 46 66 91 86 46 20 48 20 52 -6z"/>
<path d="M730 438 c0 -43 5 -57 27 -80 28 -30 53 -37 53 -15 0 8 -11 24 -25
37 -19 18 -25 34 -25 67 0 32 -4 43 -15 43 -11 0 -15 -12 -15 -52z"/>
</g>
</svg>
